<svg width="24" height="26" viewBox="0 0 24 26" fill="none" xmlns="http://www.w3.org/2000/svg">
<path d="M22.6 6.99999V6.24407C22.6 4.81246 22.6 4.09666 22.4104 3.51935C22.051 2.42463 21.2161 1.56515 20.1527 1.19513C19.5919 1 18.8967 1 17.506 1H6.09402C4.70336 1 4.00805 1 3.44727 1.19513C2.38386 1.56515 1.54898 2.42463 1.18954 3.51935C1 4.09666 1 4.81246 1 6.24407V16.6M22.6 11.8V23.049C22.6 24.0789 21.418 24.6253 20.6703 23.9411C20.2309 23.5391 19.569 23.5391 19.1297 23.9411L18.55 24.4716C17.7801 25.1761 16.6199 25.1761 15.85 24.4716C15.0801 23.7671 13.9199 23.7671 13.15 24.4716C12.3801 25.1761 11.2199 25.1761 10.45 24.4716C9.68007 23.7671 8.5199 23.7671 7.74999 24.4716C6.98008 25.1761 5.8199 25.1761 5.04999 24.4716L4.47028 23.9411C4.03099 23.5391 3.369 23.5391 2.92972 23.9411C2.182 24.6253 1 24.0789 1 23.049V21.4" stroke="white" stroke-width="1.5" stroke-linecap="round"/>
<path d="M8.80005 11.0799L10.5144 12.9999L14.8 8.19995" stroke="white" stroke-width="1.5" stroke-linecap="round" stroke-linejoin="round"/>
<path d="M6.40002 17.2H8.20002M17.2 17.2H11.8" stroke="white" stroke-width="1.5" stroke-linecap="round"/>
</svg>
