<svg width="19" height="13" viewBox="0 0 19 13" fill="none" xmlns="http://www.w3.org/2000/svg">
<path d="M15.477 7.24489C15.4052 7.24489 15.3334 7.24489 15.2616 7.24489C10.7391 7.24489 6.2167 7.24513 1.69423 7.24366C1.57101 7.24362 1.44287 7.243 1.32547 7.21285C0.955475 7.11779 0.710882 6.76741 0.755168 6.41811C0.804176 6.03136 1.10856 5.75709 1.51107 5.73863C1.58547 5.73522 1.66013 5.73631 1.73464 5.73631C6.24468 5.73622 10.7547 5.73622 15.2647 5.73622C15.3361 5.73622 15.4074 5.73622 15.4788 5.73622C15.4978 5.71018 15.5169 5.68419 15.5359 5.65816C15.4757 5.6272 15.4036 5.60765 15.3571 5.56358C14.0328 4.3064 12.7121 3.04572 11.3878 1.78855C11.1483 1.56119 11.0369 1.30353 11.1336 0.986233C11.2901 0.472958 11.9376 0.274711 12.381 0.602567C12.4396 0.64588 12.4915 0.697714 12.5442 0.747844C14.3366 2.45453 16.1288 4.16141 17.9209 5.86843C18.3605 6.28722 18.3597 6.6947 17.9184 7.11505C16.1134 8.83438 14.3074 10.5528 12.504 12.2736C12.2672 12.4994 12.0013 12.616 11.6645 12.5285C11.1082 12.3838 10.8948 11.7421 11.2625 11.3197C11.306 11.2698 11.3561 11.225 11.4044 11.179C12.7221 9.92379 14.0394 8.66836 15.3596 7.41559C15.4055 7.37204 15.4799 7.35571 15.541 7.32669C15.5197 7.29943 15.4983 7.27216 15.477 7.24489Z" fill="white"/>
</svg>
