<svg width="20" height="20" viewBox="0 0 20 20" fill="none" xmlns="http://www.w3.org/2000/svg">
<path d="M19.3301 2.66956H13.2645C13.1115 1.91616 12.7027 1.23882 12.1075 0.752297C11.5122 0.265777 10.7671 0 9.99833 0C9.22955 0 8.48442 0.265777 7.88918 0.752297C7.29394 1.23882 6.88519 1.91616 6.73221 2.66956H0.666555C0.489774 2.66956 0.320233 2.73979 0.19523 2.86479C0.0702261 2.9898 0 3.15934 0 3.33612C0 3.5129 0.0702261 3.68244 0.19523 3.80744C0.320233 3.93245 0.489774 4.00267 0.666555 4.00267H19.3301C19.5069 4.00267 19.6764 3.93245 19.8014 3.80744C19.9264 3.68244 19.9967 3.5129 19.9967 3.33612C19.9967 3.15934 19.9264 2.9898 19.8014 2.86479C19.6764 2.73979 19.5069 2.66956 19.3301 2.66956ZM9.99833 1.33645C10.4109 1.33761 10.813 1.46635 11.1495 1.70502C11.486 1.94368 11.7405 2.28059 11.878 2.66956H8.11864C8.25616 2.28059 8.51063 1.94368 8.84715 1.70502C9.18367 1.46635 9.58577 1.33761 9.99833 1.33645ZM16.9172 5.38911C16.7958 5.33806 16.662 5.32412 16.5327 5.34903C16.4034 5.37394 16.2844 5.43659 16.1906 5.52908C16.1289 5.59137 16.08 5.66523 16.0468 5.74644C16.0136 5.82766 15.9968 5.91462 15.9973 6.00234C15.9973 6.17912 16.0676 6.34866 16.1926 6.47366C16.3176 6.59867 16.4871 6.66889 16.6639 6.66889C16.8407 6.66889 17.0102 6.59867 17.1352 6.47366C17.2602 6.34866 17.3304 6.17912 17.3304 6.00234C17.328 5.82586 17.2589 5.65682 17.1371 5.52908C17.0737 5.4684 16.999 5.42083 16.9172 5.38911ZM16.6639 8.002C16.4871 8.002 16.3176 8.07223 16.1926 8.19723C16.0676 8.32224 15.9973 8.49178 15.9973 8.66856V10.6682C15.9973 10.845 16.0676 11.0145 16.1926 11.1396C16.3176 11.2646 16.4871 11.3348 16.6639 11.3348C16.8407 11.3348 17.0102 11.2646 17.1352 11.1396C17.2602 11.0145 17.3304 10.845 17.3304 10.6682V8.66856C17.3304 8.49178 17.2602 8.32224 17.1352 8.19723C17.0102 8.07223 16.8407 8.002 16.6639 8.002ZM16.6639 12.6679C16.4871 12.6679 16.3176 12.7381 16.1926 12.8631C16.0676 12.9881 15.9973 13.1577 15.9973 13.3344V18.0003C15.9973 18.1771 15.9271 18.3467 15.8021 18.4717C15.6771 18.5967 15.5076 18.6669 15.3308 18.6669H4.66589C4.48911 18.6669 4.31957 18.5967 4.19456 18.4717C4.06956 18.3467 3.99933 18.1771 3.99933 18.0003V6.00234C3.99933 5.82556 3.92911 5.65602 3.8041 5.53101C3.6791 5.40601 3.50956 5.33578 3.33278 5.33578C3.156 5.33578 2.98645 5.40601 2.86145 5.53101C2.73645 5.65602 2.66622 5.82556 2.66622 6.00234V18.0003C2.66622 18.5307 2.8769 19.0393 3.25191 19.4143C3.62692 19.7893 4.13554 20 4.66589 20H15.3308C15.8611 20 16.3697 19.7893 16.7448 19.4143C17.1198 19.0393 17.3304 18.5307 17.3304 18.0003V13.3344C17.3304 13.1577 17.2602 12.9881 17.1352 12.8631C17.0102 12.7381 16.8407 12.6679 16.6639 12.6679Z" fill="white"/>
<path d="M7.3321 15.3341V6.66887C7.3321 6.49209 7.26188 6.32255 7.13687 6.19755C7.01187 6.07255 6.84233 6.00232 6.66555 6.00232C6.48877 6.00232 6.31923 6.07255 6.19422 6.19755C6.06922 6.32255 5.99899 6.49209 5.99899 6.66887V15.3341C5.99899 15.5109 6.06922 15.6804 6.19422 15.8054C6.31923 15.9304 6.48877 16.0006 6.66555 16.0006C6.84233 16.0006 7.01187 15.9304 7.13687 15.8054C7.26188 15.6804 7.3321 15.5109 7.3321 15.3341ZM10.6649 15.3341V6.66887C10.6649 6.49209 10.5947 6.32255 10.4697 6.19755C10.3446 6.07255 10.1751 6.00232 9.99832 6.00232C9.82154 6.00232 9.652 6.07255 9.527 6.19755C9.402 6.32255 9.33177 6.49209 9.33177 6.66887V15.3341C9.33177 15.5109 9.402 15.6804 9.527 15.8054C9.652 15.9304 9.82154 16.0006 9.99832 16.0006C10.1751 16.0006 10.3446 15.9304 10.4697 15.8054C10.5947 15.6804 10.6649 15.5109 10.6649 15.3341ZM13.9977 15.3341V6.66887C13.9977 6.49209 13.9274 6.32255 13.8024 6.19755C13.6774 6.07255 13.5079 6.00232 13.3311 6.00232C13.1543 6.00232 12.9848 6.07255 12.8598 6.19755C12.7348 6.32255 12.6645 6.49209 12.6645 6.66887V15.3341C12.6645 15.5109 12.7348 15.6804 12.8598 15.8054C12.9848 15.9304 13.1543 16.0006 13.3311 16.0006C13.5079 16.0006 13.6774 15.9304 13.8024 15.8054C13.9274 15.6804 13.9977 15.5109 13.9977 15.3341Z" fill="white"/>
</svg>
