<svg width="20" height="20" viewBox="0 0 20 20" fill="none" xmlns="http://www.w3.org/2000/svg">
<path d="M18.4536 10.2773H16.7826V0.55989C16.7826 0.250644 16.532 0 16.2227 0H5.25107C5.08932 0 4.9356 0.069924 4.82928 0.191731L1.12456 4.4365C1.03547 4.53853 0.98645 4.66929 0.98645 4.80466V19.4401C0.98645 19.7494 1.23709 20 1.54634 20H16.2227C16.532 20 16.7826 19.7494 16.7826 19.4401V17.8365H18.4536C18.7629 17.8365 19.0135 17.5858 19.0135 17.2766V10.8372C19.0135 10.528 18.7629 10.2773 18.4536 10.2773ZM17.8937 16.7167H5.87864V11.3971H17.8938L17.8937 16.7167ZM4.69118 2.05287V4.24477H2.7781L4.69118 2.05287ZM15.6628 18.8802H2.10623V5.36455H5.25107C5.56031 5.36455 5.81096 5.11391 5.81096 4.80466V1.11978H15.6628V10.2773H5.31875C5.00951 10.2773 4.75886 10.528 4.75886 10.8372V17.2766C4.75886 17.5858 5.00951 17.8365 5.31875 17.8365H15.6628V18.8802Z" fill="white"/>
<path d="M9.13252 12.449H7.69846V15.6973H9.1054C10.1776 15.6973 10.4536 14.6929 10.4536 13.9963C10.4536 13.381 10.2274 12.449 9.13252 12.449ZM9.02396 15.1364H8.36348V13.01H9.01494C9.30447 13.01 9.7614 13.0869 9.7614 14.046C9.7614 14.5799 9.57589 15.1364 9.02396 15.1364Z" fill="white"/>
<path d="M12.3811 12.363C11.9513 12.363 10.8203 12.5485 10.8203 14.0731C10.8203 15.5978 11.9513 15.7832 12.3811 15.7832C12.8109 15.7832 13.9419 15.5978 13.9419 14.0731C13.9419 12.5485 12.8109 12.363 12.3811 12.363ZM12.3811 15.2087C12.0146 15.2087 11.4989 14.9825 11.4989 14.0732C11.4989 13.1639 12.0146 12.9376 12.3811 12.9376C12.7475 12.9376 13.2633 13.1639 13.2633 14.0732C13.2633 14.9825 12.7475 15.2087 12.3811 15.2087Z" fill="white"/>
<path d="M15.8333 12.363C14.9964 12.363 14.3404 12.9421 14.3404 14.0777C14.3404 15.1996 14.9602 15.7833 15.8243 15.7833C16.6386 15.7833 17.1001 15.2901 17.2358 14.5844H16.5572C16.4757 14.9825 16.2134 15.1951 15.8378 15.1951C15.2632 15.1951 15.0325 14.6703 15.0325 14.0867C15.0325 13.1683 15.5121 12.9512 15.8378 12.9512C16.3988 12.9512 16.5028 13.3176 16.5572 13.5122H17.2358C17.1996 13.0326 16.806 12.363 15.8333 12.363Z" fill="white"/>
<path d="M9.16393 5.06475L9.51785 3.41022H9.52637L9.88028 5.06475H10.4944L11.1468 2.79614H10.5327L10.1788 4.42505H10.1702L9.82915 2.79614H9.22789L8.90806 4.42505H8.89954L8.54563 2.79614H7.91022L8.54986 5.06475H9.16393Z" fill="white"/>
<path d="M12.1271 4.81863H13.0838C13.393 4.81863 13.6437 4.56799 13.6437 4.25874C13.6437 3.9495 13.393 3.69885 13.0838 3.69885H12.1271C11.8178 3.69885 11.5672 3.9495 11.5672 4.25874C11.5672 4.56799 11.8178 4.81863 12.1271 4.81863Z" fill="white"/>
<path d="M13.1592 5.80756H8.53413C8.22489 5.80756 7.97424 6.0582 7.97424 6.36745C7.97424 6.67669 8.22489 6.92734 8.53413 6.92734H13.1592C13.4684 6.92734 13.7191 6.67669 13.7191 6.36745C13.7191 6.0582 13.4684 5.80756 13.1592 5.80756Z" fill="white"/>
<path d="M13.1592 7.91895H8.53413C8.22489 7.91895 7.97424 8.16959 7.97424 8.47884C7.97424 8.78808 8.22489 9.03872 8.53413 9.03872H13.1592C13.4684 9.03872 13.7191 8.78808 13.7191 8.47884C13.7191 8.16959 13.4684 7.91895 13.1592 7.91895Z" fill="white"/>
</svg>
