<svg width="20" height="20" viewBox="0 0 20 20" fill="none" xmlns="http://www.w3.org/2000/svg">
<path fill-rule="evenodd" clip-rule="evenodd" d="M18.9587 0.871209C17.7971 -0.290398 15.9138 -0.290408 14.7522 0.871209L13.0867 2.53672L5.24788 10.3754C5.12081 10.5026 5.03067 10.6618 4.98709 10.8361L3.99559 14.8021C3.91112 15.14 4.01012 15.4974 4.25638 15.7436C4.50265 15.9899 4.86008 16.0889 5.19796 16.0045L9.16391 15.013C9.33831 14.9693 9.49744 14.8792 9.62455 14.7521L17.4063 6.97042L19.1288 5.24788C20.2905 4.08628 20.2905 2.20293 19.1288 1.04132L18.9587 0.871209ZM16.1544 2.27339C16.5415 1.88619 17.1693 1.88619 17.5565 2.27339L17.7267 2.4435C18.1138 2.83071 18.1138 3.4585 17.7267 3.8457L16.7188 4.85357L15.1766 3.25113L16.1544 2.27339ZM13.7742 4.65357L15.3163 6.25602L8.41661 13.1558L6.32016 13.6799L6.84426 11.5835L13.7742 4.65357ZM1.98299 6.11909C1.98299 5.57151 2.42691 5.12759 2.97449 5.12759H7.93197C8.47957 5.12759 8.92347 4.68369 8.92347 4.1361C8.92347 3.58851 8.47957 3.1446 7.93197 3.1446H2.97449C1.33173 3.1446 0 4.47633 0 6.11909V17.0255C0 18.6683 1.33173 20 2.97449 20H13.8809C15.5238 20 16.8554 18.6683 16.8554 17.0255V12.068C16.8554 11.5205 16.4115 11.0765 15.8639 11.0765C15.3163 11.0765 14.8724 11.5205 14.8724 12.068V17.0255C14.8724 17.5731 14.4286 18.017 13.8809 18.017H2.97449C2.42691 18.017 1.98299 17.5731 1.98299 17.0255V6.11909Z" fill="white"/>
</svg>
