<svg width="20" height="20" viewBox="0 0 20 20" fill="none" xmlns="http://www.w3.org/2000/svg">
<path fill-rule="evenodd" clip-rule="evenodd" d="M5.72081 0.266264C5.8913 0.0957818 6.12253 0 6.36364 0H13.6364C15.1426 0 16.3636 1.22105 16.3636 2.72727V7.27273C16.3636 7.7748 15.9566 8.18182 15.4545 8.18182C14.9525 8.18182 14.5455 7.7748 14.5455 7.27273V2.72727C14.5455 2.2252 14.1385 1.81818 13.6364 1.81818H7.27273V6.36364C7.27273 6.86571 6.86573 7.27273 6.36364 7.27273H1.81818V17.2727C1.81818 17.7748 2.2252 18.1818 2.72727 18.1818H3.63636C4.13844 18.1818 4.54545 18.5888 4.54545 19.0909C4.54545 19.593 4.13844 20 3.63636 20H2.72727C1.22105 20 0 18.779 0 17.2727V6.36364C0 6.12253 0.0957819 5.8913 0.266264 5.72081L5.72081 0.266264ZM3.10383 5.45455H5.45455V3.10383L3.10383 5.45455ZM14.5455 10C15.0475 10 15.4545 10.407 15.4545 10.9091V16.3636H18.1818C18.6839 16.3636 19.0909 16.7706 19.0909 17.2727C19.0909 17.7748 18.6839 18.1818 18.1818 18.1818H14.5455C14.0434 18.1818 13.6364 17.7748 13.6364 17.2727V10.9091C13.6364 10.407 14.0434 10 14.5455 10ZM8.01245 10.3807C7.72064 9.97209 7.15291 9.87755 6.74436 10.1694C6.33577 10.4612 6.24115 11.0289 6.533 11.4375L8.42827 14.0909L6.533 16.7444C6.24115 17.1529 6.33577 17.7206 6.74436 18.0125C7.15291 18.3043 7.72064 18.2097 8.01245 17.8011L9.54545 15.655L11.0785 17.8011C11.3703 18.2097 11.938 18.3043 12.3465 18.0125C12.7552 17.7206 12.8497 17.1529 12.5579 16.7444L10.6626 14.0909L12.5579 11.4375C12.8497 11.0289 12.7552 10.4612 12.3465 10.1694C11.938 9.87755 11.3703 9.97209 11.0785 10.3807L9.54545 12.5268L8.01245 10.3807Z" fill="white"/>
</svg>
