<svg width="23" height="24" viewBox="0 0 23 24" fill="none" xmlns="http://www.w3.org/2000/svg">
<g clip-path="url(#clip0_48_157)">
<path d="M18.4004 1.59924C18.7229 1.59924 19.0207 1.5983 19.3185 1.59937C21.0541 1.60551 22.3978 2.9369 22.399 4.6686C22.4026 10.085 22.4022 15.5013 22.3992 20.9177C22.3982 22.6542 21.0618 23.9961 19.3296 23.9973C13.9132 24.0009 8.49688 24.0006 3.08048 23.9975C1.34538 23.9965 0.00291695 22.6563 0.0020502 20.9265C-0.0006834 15.5101 -0.0006834 10.0937 0.0020502 4.67734C0.00291695 2.9437 1.34298 1.60664 3.07422 1.59951C3.37278 1.59824 3.67134 1.59931 4.00104 1.59931C4.00104 1.33568 3.99851 1.08879 4.00157 0.841965C4.00757 0.353717 4.34587 -0.000650679 4.80192 1.60526e-05C5.25576 0.000616111 5.59413 0.357251 5.60033 0.845165C5.60339 1.08559 5.60086 1.32608 5.60086 1.58277C7.20255 1.58277 8.78837 1.58277 10.4009 1.58277C10.4009 1.33035 10.3981 1.08279 10.4015 0.835297C10.4083 0.349383 10.7516 -0.00425103 11.2084 -5.06205e-05C11.6526 0.00401644 11.9917 0.355984 11.9998 0.826763C12.0041 1.07492 12.0006 1.32321 12.0006 1.5851C13.6012 1.5851 15.1811 1.5851 16.8007 1.5851C16.8007 1.35401 16.7996 1.11632 16.801 0.878635C16.804 0.363985 17.1262 0.00574994 17.5898 -5.06205e-05C18.0623 -0.00598453 18.3972 0.358251 18.4004 0.883235C18.4016 1.11432 18.4004 1.34541 18.4004 1.59924ZM4.00091 3.19919C3.72195 3.19919 3.48085 3.19919 3.23983 3.19919C2.16966 3.19939 1.60094 3.76378 1.60094 4.82655C1.60087 10.1333 1.61367 15.4402 1.58967 20.7469C1.58514 21.7536 2.27254 22.4135 3.24117 22.4094C8.54788 22.3869 13.8547 22.3987 19.1616 22.3987C20.2301 22.3987 20.8003 21.832 20.8003 20.77C20.8004 15.9797 20.8004 11.1894 20.8003 6.3991C20.8003 5.80758 20.8063 5.21606 20.7982 4.62467C20.7887 3.93653 20.3322 3.35161 19.6539 3.24493C19.2516 3.18166 18.8312 3.23333 18.4004 3.23333C18.4004 3.46102 18.4018 3.69278 18.4002 3.92453C18.3964 4.43511 18.0679 4.79548 17.6054 4.79835C17.1424 4.80122 16.805 4.43991 16.8009 3.9344C16.799 3.69558 16.8006 3.45675 16.8006 3.2166C15.1857 3.2166 13.6002 3.2166 12.0006 3.2166C12.0006 3.46615 12.0022 3.69844 12.0003 3.93073C11.996 4.43858 11.6625 4.79895 11.1994 4.79835C10.7369 4.79775 10.4047 4.43645 10.4011 3.9282C10.3994 3.69011 10.4008 3.45195 10.4008 3.2188C8.78157 3.2188 7.19595 3.2188 5.60086 3.2188C5.60086 3.47115 5.60266 3.70411 5.60046 3.93693C5.59566 4.44198 5.25696 4.80242 4.79338 4.79828C4.34027 4.79428 4.00651 4.43671 4.00144 3.94693C3.99891 3.70704 4.00091 3.46709 4.00091 3.19919Z" fill="white"/>
<path d="M14.8018 11.1991C13.9021 11.1991 13.0023 11.2 12.1026 11.1988C11.5693 11.1981 11.2053 10.8766 11.2012 10.4065C11.1969 9.92407 11.5611 9.59964 12.1113 9.59944C13.9275 9.59877 15.7437 9.59804 17.5598 9.60017C17.9693 9.60064 18.2751 9.83359 18.375 10.2059C18.4621 10.5306 18.3279 10.8998 18.0227 11.0666C17.8767 11.1465 17.6932 11.1912 17.526 11.1934C16.6181 11.2054 15.7099 11.1991 14.8018 11.1991Z" fill="white"/>
<path d="M14.7964 16.799C15.6962 16.799 16.5959 16.7982 17.4957 16.7992C18.0307 16.7998 18.3937 17.1186 18.3991 17.5892C18.4045 18.0701 18.0377 18.3984 17.4901 18.3986C15.6823 18.3994 13.8744 18.4006 12.0666 18.398C11.4393 18.3971 11.0395 17.8509 11.2572 17.3028C11.3825 16.9873 11.6692 16.8007 12.0472 16.7998C12.9636 16.7974 13.88 16.799 14.7964 16.799Z" fill="white"/>
<path d="M6.3932 10.0779C7.00772 9.46286 7.59658 8.87627 8.1819 8.28622C8.38219 8.08426 8.61608 7.97645 8.90044 8.01972C9.21367 8.06733 9.43769 8.24314 9.54177 8.54464C9.65271 8.86594 9.5749 9.15277 9.33648 9.39246C8.76116 9.97085 8.18357 10.547 7.60671 11.124C7.39483 11.3359 7.18714 11.5523 6.96919 11.7579C6.62349 12.084 6.16751 12.0858 5.82894 11.7541C5.29382 11.2298 4.76437 10.6995 4.23932 10.1651C3.91009 9.82997 3.91102 9.33885 4.22719 9.02402C4.54355 8.70892 5.03153 8.71019 5.36823 9.03996C5.7072 9.37159 6.03523 9.71435 6.3932 10.0779Z" fill="white"/>
<path d="M6.3887 17.2819C7.00842 16.6617 7.59735 16.075 8.18294 15.485C8.38329 15.2831 8.61744 15.176 8.90187 15.2198C9.2151 15.2681 9.43853 15.4442 9.5422 15.7459C9.65268 16.0675 9.57394 16.3538 9.33552 16.5933C8.71879 17.2128 8.10013 17.8303 7.48207 18.4484C7.31138 18.6191 7.14444 18.7939 6.96835 18.9588C6.62178 19.2833 6.16687 19.285 5.82791 18.9528C5.29286 18.4283 4.76327 17.8982 4.23835 17.3637C3.90952 17.0288 3.91152 16.5369 4.22829 16.2227C4.54545 15.9081 5.02896 15.9135 5.37006 16.24C5.54441 16.4068 5.71403 16.5789 5.88271 16.7515C6.0454 16.918 6.20421 17.0882 6.3887 17.2819Z" fill="white"/>
</g>
<defs>
<clipPath id="clip0_48_157">
<rect width="22.4016" height="24" fill="white"/>
</clipPath>
</defs>
</svg>
