<svg width="24" height="24" viewBox="0 0 24 24" fill="none" xmlns="http://www.w3.org/2000/svg">
<path d="M6.47014 24H18.3582C20.6754 24 21.8283 22.8246 21.8283 20.4962V10.3321C21.8283 8.88807 21.6716 8.26116 20.7761 7.34328L14.597 1.0634C13.7463 0.190281 13.0522 0 11.7873 0H6.47014C4.16418 0 3 1.18658 3 3.51494V20.4962C3 22.8358 4.16418 24 6.47014 24ZM6.55969 22.1977C5.40669 22.1977 4.80222 21.5821 4.80222 20.4627V3.54851C4.80222 2.44031 5.40669 1.80222 6.57087 1.80222H11.541V8.30596C11.541 9.71639 12.2574 10.4104 13.6455 10.4104H20.0261V20.4627C20.0261 21.5821 19.4328 22.1977 18.2686 22.1977H6.55969ZM13.847 8.72014C13.4104 8.72014 13.2313 8.54104 13.2313 8.09328V2.14925L19.6791 8.72014H13.847ZM16.5336 13.4888H8.03728C7.63432 13.4888 7.34326 13.791 7.34326 14.1717C7.34326 14.5634 7.63432 14.8657 8.03728 14.8657H16.5336C16.9253 14.8657 17.2276 14.5634 17.2276 14.1717C17.2276 13.791 16.9253 13.4888 16.5336 13.4888ZM16.5336 17.3955H8.03728C7.63432 17.3955 7.34326 17.7089 7.34326 18.1007C7.34326 18.4813 7.63432 18.7724 8.03728 18.7724H16.5336C16.9253 18.7724 17.2276 18.4813 17.2276 18.1007C17.2276 17.7089 16.9253 17.3955 16.5336 17.3955Z" fill="white"/>
</svg>
