<svg width="17" height="20" viewBox="0 0 17 20" fill="none" xmlns="http://www.w3.org/2000/svg">
<path d="M12.9182 0H6.27309H5.75816L5.3943 0.363828L0.363828 5.39461L0 5.75844V6.27312V16.6448C0 18.4948 1.505 20 3.35531 20H12.9182C14.768 20 16.273 18.4948 16.273 16.6448V3.35531C16.273 1.505 14.768 0 12.9182 0ZM15.0309 16.6447C15.0309 17.8118 14.085 18.7577 12.9182 18.7577H3.35531C2.18797 18.7577 1.24211 17.8118 1.24211 16.6447V6.27309H4.51227C5.48434 6.27309 6.27309 5.48488 6.27309 4.51254V1.24234H12.9182C14.085 1.24234 15.0309 2.1882 15.0309 3.35531V16.6447Z" fill="white"/>
<path d="M4.85316 9.87439H3.73874C3.52655 9.87439 3.39944 10.0124 3.39944 10.2191V13.1001C3.39944 13.3497 3.56366 13.5142 3.79167 13.5142C4.01476 13.5142 4.17894 13.3497 4.17894 13.1001V12.2249C4.17894 12.2036 4.18984 12.193 4.21112 12.193H4.85316C5.63812 12.193 6.1105 11.7154 6.1105 11.0363C6.11054 10.3465 5.64359 9.87439 4.85316 9.87439ZM4.80519 11.519H4.21112C4.18984 11.519 4.17894 11.5084 4.17894 11.4874V10.58C4.17894 10.5587 4.18984 10.5481 4.21112 10.5481H4.80519C5.13409 10.5481 5.33046 10.7445 5.33046 11.0363C5.3305 11.3281 5.13409 11.519 4.80519 11.519Z" fill="white"/>
<path d="M7.90958 9.87439H7.05536C6.84317 9.87439 6.71606 10.0124 6.71606 10.2191V13.1427C6.71606 13.3497 6.84313 13.4822 7.05536 13.4822H7.90958C8.67872 13.4822 9.15657 13.2381 9.34747 12.6493C9.41622 12.4422 9.45384 12.193 9.45384 11.6783C9.45384 11.1636 9.41618 10.9144 9.34747 10.7074C9.15653 10.1185 8.67872 9.87439 7.90958 9.87439ZM8.59962 12.3787C8.50907 12.6651 8.24942 12.7873 7.88829 12.7873H7.52774C7.50646 12.7873 7.49556 12.7767 7.49556 12.7554V10.6013C7.49556 10.58 7.50646 10.5694 7.52774 10.5694H7.88829C8.24942 10.5694 8.50907 10.6915 8.59962 10.9779C8.63673 11.1001 8.6629 11.3123 8.6629 11.6783C8.6629 12.0444 8.63669 12.2565 8.59962 12.3787Z" fill="white"/>
<path d="M12.2446 9.87439H10.4941C10.2819 9.87439 10.1543 10.0124 10.1543 10.2191V13.1001C10.1543 13.3497 10.319 13.5142 10.547 13.5142C10.7696 13.5142 10.9343 13.3497 10.9343 13.1001V12.0708C10.9343 12.0498 10.9447 12.0392 10.9659 12.0392H11.9849C12.2129 12.0392 12.3455 11.9012 12.3455 11.7048C12.3455 11.5084 12.2129 11.3707 11.9849 11.3707H10.9659C10.9447 11.3707 10.9343 11.3601 10.9343 11.3388V10.58C10.9343 10.5587 10.9447 10.5481 10.9659 10.5481H12.2446C12.4622 10.5481 12.6057 10.4049 12.6057 10.214C12.6057 10.0176 12.4622 9.87439 12.2446 9.87439Z" fill="white"/>
</svg>
