<svg width="17" height="20" viewBox="0 0 17 20" fill="none" xmlns="http://www.w3.org/2000/svg">
<path d="M11.9685 13.5236C11.6404 13.5038 10.8517 13.5506 10.0618 13.7006C9.60493 13.2382 9.20926 12.6556 8.91575 12.1751C9.8563 9.47076 9.26063 8.70209 8.45883 8.70209C7.82919 8.70209 7.51481 9.36658 7.58477 10.1007C7.62016 10.4703 7.93313 11.2468 8.31837 11.9844C8.08204 12.606 7.66028 13.6565 7.24165 14.4168C6.75161 14.5657 6.3313 14.7312 6.02965 14.8708C4.52712 15.5695 4.40637 16.5026 4.71903 16.8979C5.31266 17.6489 6.57747 17.001 7.84661 14.7312C8.71547 14.4841 9.85864 14.1549 9.96169 14.1549C9.97356 14.1549 9.98985 14.1587 10.0087 14.1648C10.6421 14.7233 11.3902 15.3629 12.0059 15.447C12.8968 15.5695 13.404 14.9234 13.3688 14.5216C13.334 14.1195 13.0991 13.5915 11.9685 13.5236ZM6.34407 15.9719C5.97684 16.4085 5.3829 16.8273 5.17329 16.688C4.9634 16.5484 4.92856 16.1466 5.40059 15.692C5.87231 15.238 6.66192 15.0023 6.78063 14.9582C6.92087 14.906 6.95571 14.9582 6.95571 15.0281C6.95571 15.0981 6.71098 15.5347 6.34407 15.9719ZM7.95196 10.1004C7.91684 9.66322 8.00391 9.24408 8.37114 9.19181C8.73778 9.139 8.91286 9.55845 8.77317 10.2398C8.63325 10.922 8.56301 11.3757 8.49333 11.4288C8.4234 11.4811 8.35399 11.306 8.35399 11.306C8.21383 11.0261 7.9868 10.537 7.95196 10.1004ZM8.09188 14.2069C8.28376 13.8919 8.77321 12.617 8.77321 12.617C8.87801 12.8094 9.69895 13.7871 9.69895 13.7871C9.69895 13.7871 8.44083 14.0673 8.09188 14.2069ZM11.9002 14.7654C11.3763 14.6963 10.4854 14.0664 10.4854 14.0664C10.3632 14.0142 11.4616 13.8649 11.8834 13.8919C12.4254 13.9271 12.6175 14.1544 12.6175 14.3814C12.6175 14.6086 12.4254 14.8354 11.9002 14.7654Z" fill="white"/>
<path d="M16.4056 4.20547L12.5642 0.36375L12.2004 0H11.6854H3.85129C2.00156 0 0.496719 1.50516 0.496719 3.35551V3.61215H0V7.62516H0.496719V16.6448C0.496719 18.4949 2.0016 20 3.85133 20H13.4141C15.2645 20 16.7693 18.4949 16.7693 16.6448V5.08418V4.56949L16.4056 4.20547ZM13.4141 18.7575H3.85129C2.6843 18.7575 1.73855 17.8118 1.73855 16.6448V7.62512H7.88348V3.61211H1.73855V3.35547C1.73855 2.1882 2.6843 1.24211 3.85129 1.24211H11.3882V3.62078C11.3882 4.59297 12.1769 5.38113 13.1491 5.38113H15.5274V16.6448C15.5274 17.8118 14.5814 18.7575 13.4141 18.7575ZM1.82566 6.48773V4.63016C1.82566 4.59738 1.85234 4.57063 1.8852 4.57063H2.47535C2.57262 4.57063 2.6623 4.5866 2.74242 4.61797C2.82168 4.64902 2.89133 4.69258 2.94941 4.74773C3.00805 4.80316 3.05305 4.87055 3.08352 4.94777C3.11398 5.02352 3.12969 5.10629 3.12969 5.19363C3.12969 5.28277 3.11398 5.36605 3.0832 5.44098C3.05273 5.5159 3.00773 5.58234 2.94969 5.6384C2.89191 5.69414 2.82195 5.73797 2.74184 5.76844C2.6623 5.79891 2.57262 5.8143 2.47535 5.8143H2.22629V6.48777C2.22629 6.52059 2.19961 6.54727 2.1668 6.54727H1.88523C1.85234 6.54727 1.82566 6.52055 1.82566 6.48773ZM3.64578 6.48773V4.63016C3.64578 4.59738 3.6725 4.57063 3.70531 4.57063H4.35758C4.48152 4.57063 4.5907 4.59125 4.68273 4.63187C4.77594 4.67336 4.85922 4.7393 4.93066 4.82754C4.96754 4.87398 4.99684 4.92535 5.01801 4.98051C5.03863 5.03422 5.0543 5.0923 5.06445 5.15266C5.07434 5.21246 5.08012 5.27691 5.08215 5.34629C5.08391 5.41246 5.08477 5.48359 5.08477 5.55906C5.08477 5.63422 5.08391 5.70539 5.08215 5.77156C5.08012 5.84066 5.07434 5.90539 5.06445 5.96547C5.0543 6.02586 5.03863 6.08363 5.01801 6.1373C4.99652 6.19305 4.96723 6.24445 4.9309 6.29C4.85895 6.37914 4.77559 6.44504 4.6827 6.48594C4.59152 6.52656 4.48211 6.54719 4.35754 6.54719H3.70527C3.67246 6.54727 3.64578 6.52055 3.64578 6.48773ZM6.75453 5.38988C6.78734 5.38988 6.81402 5.4166 6.81402 5.44941V5.70254C6.81402 5.73535 6.78734 5.76207 6.75453 5.76207H6.04187V6.48781C6.04187 6.52062 6.01516 6.5473 5.98234 6.5473H5.70074C5.66793 6.5473 5.64125 6.52062 5.64125 6.48781V4.63023C5.64125 4.59746 5.66793 4.5707 5.70074 4.5707H6.78094C6.81371 4.5707 6.84047 4.59742 6.84047 4.63023V4.88336C6.84047 4.91617 6.81375 4.94289 6.78094 4.94289H6.04187V5.38992L6.75453 5.38988Z" fill="white"/>
<path d="M2.6588 5.37914C2.70614 5.33648 2.72903 5.27582 2.72903 5.19363C2.72903 5.11176 2.7061 5.05109 2.6588 5.00844C2.60946 4.96429 2.54442 4.94281 2.45966 4.94281H2.22626V5.44469H2.45966C2.54438 5.44472 2.60946 5.42328 2.6588 5.37914Z" fill="white"/>
<path d="M4.48384 6.15159C4.52798 6.13503 4.56599 6.10835 4.59997 6.07003C4.63685 6.02882 4.66005 5.9696 4.66907 5.89382C4.67923 5.80757 4.68415 5.69495 4.68415 5.55909C4.68415 5.42296 4.67923 5.3103 4.66907 5.22437C4.66005 5.14835 4.63685 5.08913 4.60025 5.04819C4.5663 5.00983 4.52708 4.98261 4.48415 4.96659C4.43798 4.9489 4.38517 4.94019 4.32626 4.94019H4.04642V6.17769H4.32626C4.38485 6.17772 4.43798 6.16901 4.48384 6.15159Z" fill="white"/>
</svg>
