<svg width="24" height="24" viewBox="0 0 24 24" fill="none" xmlns="http://www.w3.org/2000/svg">
<g clip-path="url(#clip0_48_152)">
<g clip-path="url(#clip1_48_152)">
<path d="M4.92282 0C5.21522 0.0785397 5.52427 0.120646 5.79595 0.244622C6.15447 0.408219 6.53146 0.58396 6.81678 0.845697C7.80657 1.75385 8.67299 2.77083 9.20364 4.02447C9.85038 5.55241 9.61443 6.95965 8.53134 8.20944C8.11252 8.69273 7.6455 9.13438 7.19672 9.59136C7.13731 9.6519 7.05582 9.69077 6.96082 9.75595C7.36318 10.3586 7.70693 10.9267 8.10211 11.4563C9.72612 13.6326 11.6694 15.4652 14.0012 16.8745C14.1633 16.9724 14.2516 16.9683 14.3932 16.8321C14.9777 16.2697 15.5399 15.6731 16.1834 15.1854C17.3395 14.3093 18.6295 14.2407 19.9521 14.7868C21.1518 15.282 22.1112 16.1194 23.0201 17.0183C23.3688 17.3631 23.6105 17.7806 23.7826 18.2407C24.2845 19.5822 23.911 21.1152 22.856 22.0797C21.7043 23.1327 20.3393 23.7047 18.8067 23.9116C16.5958 24.2101 14.5094 23.7225 12.4745 22.9097C12.3441 22.8576 12.2129 22.8067 12.087 22.7452C11.6184 22.5166 11.4166 22.0121 11.6032 21.5468C11.7916 21.0769 12.3067 20.8458 12.8035 21.0209C13.3769 21.2231 13.9383 21.4625 14.5189 21.6401C15.8759 22.0552 17.2585 22.2592 18.6792 22.0382C19.8017 21.8636 20.808 21.4412 21.6413 20.6507C22.2136 20.1079 22.3248 19.1005 21.7972 18.4912C21.0466 17.6243 20.1764 16.8838 19.0851 16.4636C18.3482 16.1798 17.6618 16.3084 17.0831 16.8427C16.4406 17.4359 15.8237 18.0568 15.1989 18.6691C14.7212 19.1372 14.3904 19.1955 13.7919 18.8914C12.3618 18.1648 11.0785 17.2235 9.88696 16.1595C8.22979 14.6797 6.76965 13.0273 5.61721 11.118C5.42792 10.8044 5.25358 10.481 5.0859 10.1552C4.81746 9.63361 4.88067 9.26651 5.29845 8.84446C5.81508 8.32249 6.33762 7.80633 6.84965 7.27986C7.19954 6.92012 7.5265 6.54158 7.63819 6.02927C7.7639 5.45258 7.59608 4.92878 7.3282 4.43292C6.88594 3.61428 6.29842 2.90227 5.61177 2.28173C4.93164 1.66706 3.89168 1.7636 3.27944 2.44584C2.20877 3.63904 1.86151 5.07559 1.88064 6.62683C1.90071 8.25202 2.32196 9.79064 2.98235 11.2639C4.29329 14.1884 6.27282 16.5884 8.77169 18.5748C8.8756 18.6574 8.9795 18.7405 9.07868 18.8286C9.47883 19.1846 9.53608 19.727 9.2185 20.1306C8.90326 20.5312 8.34969 20.6109 7.92013 20.2908C7.53845 20.0064 7.16807 19.7049 6.80956 19.3916C4.42495 17.3073 2.52354 14.8586 1.24257 11.9496C0.603279 10.4978 0.173913 8.98733 0.0422942 7.3998C0.0359642 7.32361 0.0144419 7.24868 0 7.17318C0 6.75123 0 6.32927 0 5.90731C0.013551 5.8239 0.0325881 5.74095 0.0397622 5.65702C0.145263 4.42659 0.469175 3.26223 1.12394 2.20765C1.58036 1.47251 2.09961 0.777613 2.91071 0.403014C3.30861 0.219255 3.75063 0.13129 4.17269 0C4.42275 0 4.67276 0 4.92282 0Z" fill="white"/>
<path d="M18.6661 5.40691C19.1021 5.40691 19.5023 5.41648 19.9015 5.3995C19.9895 5.39575 20.0865 5.31126 20.1573 5.24148C20.7224 4.68406 21.282 4.12106 21.8438 3.56036C21.9172 3.48721 21.9939 3.41753 22.054 3.36056C22.5059 3.81314 22.9448 4.25277 23.3923 4.7009C22.8605 5.22868 22.313 5.77223 21.7827 6.2987C22.3517 6.86545 22.9024 7.41401 23.4247 7.93415C22.918 8.44084 22.4752 8.88362 22.0207 9.33807C21.4385 8.75594 20.813 8.14 20.2007 7.51126C20.0546 7.36131 19.9064 7.30007 19.7008 7.30912C19.3739 7.32347 19.046 7.31296 18.6721 7.31296C18.6721 7.75255 18.6618 8.18126 18.6809 8.60861C18.6846 8.6924 18.7951 8.77812 18.8681 8.85108C19.4882 9.46992 20.111 10.086 20.7131 10.6832C20.2473 11.1485 19.8087 11.5865 19.3337 12.0609C18.8139 11.5325 18.2665 10.9762 17.7043 10.4048C17.1472 10.9678 16.5995 11.5213 16.0721 12.0543C15.6059 11.5889 15.1662 11.1502 14.7093 10.6942C15.2142 10.1893 15.7118 9.63924 16.2666 9.15468C16.6642 8.80742 16.8374 8.42912 16.7651 7.91451C16.7391 7.73004 16.7609 7.53883 16.7609 7.31418C16.324 7.31418 15.9145 7.30452 15.5062 7.32192C15.419 7.32562 15.3239 7.41537 15.2528 7.48598C14.6232 8.11172 13.9981 8.74206 13.395 9.34759C12.9409 8.8906 12.5043 8.45134 12.0514 7.99558C12.561 7.49232 13.1152 6.94502 13.6639 6.40326C13.0857 5.82863 12.5327 5.27909 12.002 4.75168C12.4824 4.27036 12.9193 3.83269 13.3869 3.36432C13.8205 3.80062 14.3196 4.23182 14.7302 4.73522C15.1814 5.28851 15.7057 5.52821 16.4039 5.41019C16.5055 5.39303 16.6126 5.4078 16.7595 5.4078C16.7595 4.97914 16.7714 4.56998 16.7507 4.16247C16.7458 4.06672 16.6426 3.96464 16.5643 3.88577C15.9454 3.26275 15.3217 2.64461 14.73 2.0554C15.1842 1.59991 15.628 1.15508 16.0908 0.691058C16.5926 1.20459 17.1321 1.75657 17.6737 2.31085C18.245 1.73557 18.8 1.1766 19.3442 0.628601C19.828 1.11287 20.2606 1.54599 20.7486 2.03463C20.5908 2.17736 20.4155 2.32468 20.253 2.485C19.7782 2.95319 19.3016 3.41988 18.8426 3.90321C18.7466 4.00431 18.6835 4.17147 18.6738 4.31293C18.65 4.66006 18.6661 5.01004 18.6661 5.40691Z" fill="white"/>
</g>
</g>
<defs>
<clipPath id="clip0_48_152">
<rect width="24" height="24" fill="white"/>
</clipPath>
<clipPath id="clip1_48_152">
<rect width="24.0031" height="24" fill="white"/>
</clipPath>
</defs>
</svg>
