<svg width="18" height="18" viewBox="0 0 18 18" fill="none" xmlns="http://www.w3.org/2000/svg">
<path fill-rule="evenodd" clip-rule="evenodd" d="M12.5006 11.0006H11.7106L11.4306 10.7306C12.6306 9.33063 13.2506 7.42063 12.9106 5.39063C12.4406 2.61063 10.1206 0.390626 7.32063 0.0506256C3.09063 -0.469374 -0.469374 3.09063 0.0506256 7.32063C0.390626 10.1206 2.61063 12.4406 5.39063 12.9106C7.42063 13.2506 9.33063 12.6306 10.7306 11.4306L11.0006 11.7106V12.5006L15.2506 16.7506C15.6606 17.1606 16.3306 17.1606 16.7406 16.7506C17.1506 16.3406 17.1506 15.6706 16.7406 15.2606L12.5006 11.0006ZM6.50098 11.0006C4.01098 11.0006 2.00098 8.99061 2.00098 6.50061C2.00098 4.01061 4.01098 2.00061 6.50098 2.00061C8.99098 2.00061 11.001 4.01061 11.001 6.50061C11.001 8.99061 8.99098 11.0006 6.50098 11.0006Z" fill="#A7A7A7"/>
</svg>
