<svg width="24" height="24" viewBox="0 0 24 24" fill="none" xmlns="http://www.w3.org/2000/svg">
<path d="M21.5657 6.54C21.5629 6.5201 21.5629 6.4999 21.5657 6.48C21.3954 6.1166 21.1667 5.78361 20.8886 5.49429L16.3629 1.00286C16.0442 0.684569 15.666 0.432178 15.2498 0.260105C14.8336 0.0880312 14.3875 -0.000353094 13.9371 1.06011e-06H5.57143C4.88944 1.06011e-06 4.23539 0.270919 3.75315 0.753155C3.27092 1.23539 3 1.88944 3 2.57143V21.4286C3 22.1106 3.27092 22.7646 3.75315 23.2468C4.23539 23.7291 4.88944 24 5.57143 24H19.2857C19.9677 24 20.6218 23.7291 21.104 23.2468C21.5862 22.7646 21.8571 22.1106 21.8571 21.4286V7.92C21.8567 7.44477 21.7574 6.97483 21.5657 6.54ZM15.8571 2.92286L18.9343 6H16.7143C16.487 6 16.2689 5.90969 16.1082 5.74895C15.9474 5.5882 15.8571 5.37019 15.8571 5.14286V2.92286ZM20.1429 21.4286C20.1429 21.6559 20.0526 21.8739 19.8918 22.0347C19.7311 22.1954 19.513 22.2857 19.2857 22.2857H5.57143C5.3441 22.2857 5.12608 22.1954 4.96534 22.0347C4.80459 21.8739 4.71429 21.6559 4.71429 21.4286V2.57143C4.71429 2.3441 4.80459 2.12608 4.96534 1.96534C5.12608 1.80459 5.3441 1.71429 5.57143 1.71429H13.9371H14.1429V5.14286C14.1429 5.82484 14.4138 6.4789 14.896 6.96113C15.3782 7.44337 16.0323 7.71429 16.7143 7.71429H20.1429C20.1471 7.78279 20.1471 7.85149 20.1429 7.92V21.4286Z" fill="white"/>
<path d="M9.21752 14.4675L8.25002 15.4425L8.03252 15.2175C7.96259 15.1476 7.87957 15.0921 7.7882 15.0543C7.69684 15.0164 7.59891 14.9969 7.50002 14.9969C7.40112 14.9969 7.3032 15.0164 7.21183 15.0543C7.12046 15.0921 7.03745 15.1476 6.96752 15.2175C6.89759 15.2874 6.84212 15.3705 6.80427 15.4618C6.76643 15.5532 6.74695 15.6511 6.74695 15.75C6.74695 15.8489 6.76643 15.9468 6.80427 16.0382C6.84212 16.1296 6.89759 16.2126 6.96752 16.2825L7.71752 17.0325C7.78724 17.1028 7.87019 17.1586 7.96158 17.1967C8.05298 17.2348 8.15101 17.2544 8.25002 17.2544C8.34903 17.2544 8.44705 17.2348 8.53845 17.1967C8.62984 17.1586 8.71279 17.1028 8.78252 17.0325L10.2825 15.5325C10.4237 15.3913 10.5031 15.1997 10.5031 15C10.5031 14.8003 10.4237 14.6087 10.2825 14.4675C10.1413 14.3263 9.94974 14.2469 9.75002 14.2469C9.55029 14.2469 9.35874 14.3263 9.21752 14.4675Z" fill="white"/>
<path d="M9.21752 9.96752L8.25002 10.9425L8.03252 10.7175C7.89129 10.5763 7.69974 10.4969 7.50002 10.4969C7.30029 10.4969 7.10874 10.5763 6.96752 10.7175C6.82629 10.8587 6.74695 11.0503 6.74695 11.25C6.74695 11.4497 6.82629 11.6413 6.96752 11.7825L7.71752 12.5325C7.78724 12.6028 7.87019 12.6586 7.96158 12.6967C8.05298 12.7348 8.15101 12.7544 8.25002 12.7544C8.34903 12.7544 8.44705 12.7348 8.53845 12.6967C8.62984 12.6586 8.71279 12.6028 8.78252 12.5325L10.2825 11.0325C10.4237 10.8913 10.5031 10.6997 10.5031 10.5C10.5031 10.3003 10.4237 10.1087 10.2825 9.96752C10.1413 9.82629 9.94974 9.74695 9.75002 9.74695C9.55029 9.74695 9.35874 9.82629 9.21752 9.96752Z" fill="white"/>
<path d="M16.5 10.5H12.75C12.5511 10.5 12.3603 10.579 12.2197 10.7197C12.079 10.8603 12 11.0511 12 11.25C12 11.4489 12.079 11.6397 12.2197 11.7803C12.3603 11.921 12.5511 12 12.75 12H16.5C16.6989 12 16.8897 11.921 17.0303 11.7803C17.171 11.6397 17.25 11.4489 17.25 11.25C17.25 11.0511 17.171 10.8603 17.0303 10.7197C16.8897 10.579 16.6989 10.5 16.5 10.5Z" fill="white"/>
<path d="M16.5 15H12.75C12.5511 15 12.3603 15.079 12.2197 15.2197C12.079 15.3603 12 15.5511 12 15.75C12 15.9489 12.079 16.1397 12.2197 16.2803C12.3603 16.421 12.5511 16.5 12.75 16.5H16.5C16.6989 16.5 16.8897 16.421 17.0303 16.2803C17.171 16.1397 17.25 15.9489 17.25 15.75C17.25 15.5511 17.171 15.3603 17.0303 15.2197C16.8897 15.079 16.6989 15 16.5 15Z" fill="white"/>
</svg>
