<svg width="26" height="26" viewBox="0 0 26 26" fill="none" xmlns="http://www.w3.org/2000/svg">
<g clip-path="url(#clip0_16_431)">
<mask id="mask0_16_431" style="mask-type:luminance" maskUnits="userSpaceOnUse" x="0" y="0" width="26" height="26">
<path d="M26 0H0V26H26V0Z" fill="white"/>
</mask>
<g mask="url(#mask0_16_431)">
<path d="M14.4 11.3409C14.4 12.1317 13.7732 12.7727 13 12.7727C12.2268 12.7727 11.6 12.1317 11.6 11.3409C11.6 10.5501 12.2268 9.90909 13 9.90909C13.7732 9.90909 14.4 10.5501 14.4 11.3409ZM13.2 9.52086V5.20455C13.2 5.09164 13.1104 5 13 5C12.8896 5 12.8 5.09164 12.8 5.20455V9.52086C12.8664 9.51309 12.9316 9.5 13 9.5C13.0684 9.5 13.1336 9.51309 13.2 9.52086ZM12.8 13.161V13.7955C12.8 13.9084 12.8896 14 13 14C13.1104 14 13.2 13.9084 13.2 13.7955V13.161C13.1336 13.1687 13.0684 13.1818 13 13.1818C12.9316 13.1818 12.8664 13.1687 12.8 13.161ZM16.4 10.7064V13.7955C16.4 13.9084 16.4896 14 16.6 14C16.7104 14 16.8 13.9084 16.8 13.7955V10.7064C16.7336 10.7142 16.6684 10.7273 16.6 10.7273C16.5316 10.7273 16.4664 10.7142 16.4 10.7064ZM16.8 7.06632V5.20455C16.8 5.09164 16.7104 5 16.6 5C16.4896 5 16.4 5.09164 16.4 5.20455V7.06632C16.4664 7.05855 16.5316 7.04545 16.6 7.04545C16.6684 7.04545 16.7336 7.05855 16.8 7.06632ZM9.6 5.83905V5.20455C9.6 5.09164 9.5104 5 9.4 5C9.2896 5 9.2 5.09164 9.2 5.20455V5.83905C9.2664 5.83127 9.3316 5.81818 9.4 5.81818C9.4684 5.81818 9.5336 5.83127 9.6 5.83905ZM9.2 9.47914V13.7955C9.2 13.9084 9.2896 14 9.4 14C9.5104 14 9.6 13.9084 9.6 13.7955V9.47914C9.5336 9.48691 9.4684 9.5 9.4 9.5C9.3316 9.5 9.2664 9.48691 9.2 9.47914ZM9.4 6.22727C8.6268 6.22727 8 6.86832 8 7.65909C8 8.44986 8.6268 9.09091 9.4 9.09091C10.1732 9.09091 10.8 8.44986 10.8 7.65909C10.8 6.86832 10.1732 6.22727 9.4 6.22727ZM16.6 7.45455C15.8268 7.45455 15.2 8.09559 15.2 8.88636C15.2 9.67714 15.8268 10.3182 16.6 10.3182C17.3732 10.3182 18 9.67714 18 8.88636C18 8.09559 17.3732 7.45455 16.6 7.45455Z" fill="white" stroke="white" stroke-width="0.3"/>
<path d="M25 20.8394V1H1V20.8394H9.57411V23.5863H6.14821V25H19.8598V23.5863H16.4312V20.8394H25ZM2.17857 2.41365H23.8214V16.1357H2.17857V2.41365ZM15.2527 23.5863H10.7527V20.8394H15.2527V23.5863ZM2.17857 19.4257V16.7751H23.8214V19.4257H2.17857Z" fill="white" stroke="white" stroke-width="0.4"/>
</g>
</g>
<defs>
<clipPath id="clip0_16_431">
<rect width="26" height="26" fill="white"/>
</clipPath>
</defs>
</svg>
